<svg xmlns="http://www.w3.org/2000/svg" viewBox="0 0 100 100">
  <!-- 简约背景 -->
  <rect x="0" y="0" width="100" height="100" rx="20" fill="#3b82f6" />
  
  <!-- 简化的芯片图案 -->
  <rect x="20" y="20" width="60" height="60" rx="8" fill="white" opacity="0.9" />
  
  <!-- 芯片针脚 - 左侧 -->
  <rect x="15" y="25" width="5" height="3" fill="white" />
  <rect x="15" y="32" width="5" height="3" fill="white" />
  <rect x="15" y="39" width="5" height="3" fill="white" />
  <rect x="15" y="46" width="5" height="3" fill="white" />
  <rect x="15" y="53" width="5" height="3" fill="white" />
  <rect x="15" y="60" width="5" height="3" fill="white" />
  <rect x="15" y="67" width="5" height="3" fill="white" />
  
  <!-- 芯片针脚 - 右侧 -->
  <rect x="80" y="25" width="5" height="3" fill="white" />
  <rect x="80" y="32" width="5" height="3" fill="white" />
  <rect x="80" y="39" width="5" height="3" fill="white" />
  <rect x="80" y="46" width="5" height="3" fill="white" />
  <rect x="80" y="53" width="5" height="3" fill="white" />
  <rect x="80" y="60" width="5" height="3" fill="white" />
  <rect x="80" y="67" width="5" height="3" fill="white" />
  
  <!-- 芯片针脚 - 顶部 -->
  <rect x="25" y="15" width="3" height="5" fill="white" />
  <rect x="32" y="15" width="3" height="5" fill="white" />
  <rect x="39" y="15" width="3" height="5" fill="white" />
  <rect x="46" y="15" width="3" height="5" fill="white" />
  <rect x="53" y="15" width="3" height="5" fill="white" />
  <rect x="60" y="15" width="3" height="5" fill="white" />
  <rect x="67" y="15" width="3" height="5" fill="white" />
  
  <!-- 芯片针脚 - 底部 -->
  <rect x="25" y="80" width="3" height="5" fill="white" />
  <rect x="32" y="80" width="3" height="5" fill="white" />
  <rect x="39" y="80" width="3" height="5" fill="white" />
  <rect x="46" y="80" width="3" height="5" fill="white" />
  <rect x="53" y="80" width="3" height="5" fill="white" />
  <rect x="60" y="80" width="3" height="5" fill="white" />
  <rect x="67" y="80" width="3" height="5" fill="white" />
  
  <!-- RV文字 -->
  <text x="50" y="55" font-family="Arial, sans-serif" font-size="22" font-weight="bold" text-anchor="middle" dominant-baseline="middle" fill="#3b82f6">RV</text>
</svg>